<?xml version="1.0" encoding="utf-8"?>
<!-- Generator: Adobe Illustrator 16.0.0, SVG Export Plug-In . SVG Version: 6.00 Build 0)  -->
<!DOCTYPE svg PUBLIC "-//W3C//DTD SVG 1.1//EN" "http://www.w3.org/Graphics/SVG/1.1/DTD/svg11.dtd">
<svg version="1.1" id="Layer_1" xmlns="http://www.w3.org/2000/svg" xmlns:xlink="http://www.w3.org/1999/xlink" x="0px" y="0px"
	 width="1200px" height="1200px" viewBox="0 0 1200 1200" enable-background="new 0 0 1200 1200" xml:space="preserve">
<linearGradient id="SVGID_1_" gradientUnits="userSpaceOnUse" x1="216.8081" y1="501.1948" x2="216.8081" y2="674.811">
	<stop  offset="0" style="stop-color:#27AAE1"/>
	<stop  offset="0.1125" style="stop-color:#00A7C8"/>
	<stop  offset="0.2572" style="stop-color:#00A3AF"/>
	<stop  offset="0.4043" style="stop-color:#00A09B"/>
	<stop  offset="0.5516" style="stop-color:#009E8B"/>
	<stop  offset="0.6996" style="stop-color:#009C81"/>
	<stop  offset="0.8485" style="stop-color:#009B7A"/>
	<stop  offset="1" style="stop-color:#009B77"/>
</linearGradient>
<rect x="130" y="501.195" fill="url(#SVGID_1_)" width="173.616" height="173.616"/>
<text transform="matrix(1 0 0 1 149.9663 651.373)" fill="#FFFFFF" font-family="'BrandonText-Black'" font-size="221.6208">=</text>
<g>
	<path d="M338.389,508.896c0-2.444,1.955-4.644,4.644-4.644h99.454c2.688,0,4.643,2.199,4.643,4.644v20.037
		c0,2.444-1.955,4.644-4.643,4.644h-72.33v40.075h60.357c2.443,0,4.642,2.198,4.642,4.644v20.28c0,2.688-2.199,4.644-4.642,4.644
		h-60.357v42.763h72.33c2.688,0,4.643,2.199,4.643,4.642v20.039c0,2.444-1.955,4.644-4.643,4.644h-99.454
		c-2.688,0-4.644-2.199-4.644-4.644V508.896z"/>
	<path d="M554.16,501.81c48.872,0,87.971,39.341,87.971,88.214c0,33.231-19.307,62.558-47.651,78.194l30.547,48.14
		c2.198,3.424,0,7.33-3.911,7.33h-25.902c-0.977,0-3.177-0.976-3.909-2.441l-26.147-44.229c-3.908,0.487-8.063,0.733-10.996,0.733
		c-48.872,0-87.725-38.854-87.725-87.727S505.289,501.81,554.16,501.81z M554.16,645.981c30.79,0,56.202-25.169,56.202-55.958
		c0-30.79-25.412-56.447-56.202-56.447c-30.79,0-55.958,25.657-55.958,56.447C498.202,620.812,523.371,645.981,554.16,645.981z"/>
	<path d="M671.941,508.896c0-2.444,2.198-4.644,4.643-4.644h23.215c2.687,0,4.643,2.199,4.643,4.644v101.897
		c0,20.771,14.174,35.188,35.432,35.188c21.26,0,35.676-14.418,35.676-34.944V508.896c0-2.444,1.955-4.644,4.643-4.644h23.215
		c2.445,0,4.644,2.199,4.644,4.644v103.607c0,37.146-29.566,65.247-68.177,65.247c-38.362,0-67.932-28.101-67.932-65.247V508.896z"
		/>
	<path d="M847.882,508.896c0-2.444,1.952-4.644,4.641-4.644h99.456c2.688,0,4.642,2.199,4.642,4.644v20.037
		c0,2.444-1.953,4.644-4.642,4.644h-72.333v40.075h60.359c2.444,0,4.644,2.198,4.644,4.644v20.28c0,2.688-2.199,4.644-4.644,4.644
		h-60.359v42.763h72.333c2.688,0,4.642,2.199,4.642,4.642v20.039c0,2.444-1.953,4.644-4.642,4.644h-99.456
		c-2.688,0-4.641-2.199-4.641-4.644V508.896z"/>
	<path d="M988.633,508.896c0-2.444,1.953-4.644,4.642-4.644h22.48c2.445,0,4.643,2.199,4.643,4.644v137.085h62.314
		c2.688,0,4.643,2.199,4.643,4.642v20.039c0,2.444-1.955,4.644-4.643,4.644h-89.438c-2.688,0-4.642-2.199-4.642-4.644V508.896z"/>
</g>
</svg>
